<svg xmlns="http://www.w3.org/2000/svg" width="193" height="64" fill="none" viewBox="0 0 193 64"><g filter="url(#filter0_d)"><path fill="#000" d="M29.4609 1.49219C33.0703 1.49219 36.8789 1.62109 40.8867 1.87891C44.918 2.13672 49.1484 2.64063 53.5781 3.39062V12.3203C51.6094 11.7578 49.6172 11.3008 47.6016 10.9492C45.5859 10.5742 43.5586 10.2812 41.5195 10.0703C39.5039 9.85938 37.4883 9.70703 35.4727 9.61328C33.457 9.51953 31.4531 9.46094 29.4609 9.4375C28.5 9.4375 27.4336 9.46094 26.2617 9.50781C25.1133 9.53125 23.8711 9.57812 22.5352 9.64844C21.2227 9.71875 19.8516 9.82422 18.4219 9.96484C16.9922 10.1055 15.5391 10.2812 14.0625 10.4922V23.2891H44.7891V31.9375H14.0625V55H5.41406V3.39062C9.79688 2.64063 14.0039 2.13672 18.0352 1.87891C22.0898 1.62109 25.8984 1.49219 29.4609 1.49219ZM70.4531 55H61.5234V14.9219H70.4531V55ZM66.0234 1C67.7578 1 69.1289 1.29297 70.1367 1.87891C71.1445 2.44141 71.6484 3.34375 71.6484 4.58594V6.34375C71.6484 7.46875 71.1445 8.27734 70.1367 8.76953C69.1289 9.26172 67.7578 9.50781 66.0234 9.50781C64.3594 9.50781 63.0117 9.26172 61.9805 8.76953C60.9727 8.27734 60.4688 7.46875 60.4688 6.34375V4.58594C60.4688 3.34375 60.9727 2.44141 61.9805 1.87891C63.0117 1.29297 64.3594 1 66.0234 1ZM105.188 27.7188L112.992 14.9219H115.664C117.773 15.0391 119.648 15.1914 121.289 15.3789C122.93 15.5664 124.324 15.7539 125.473 15.9414C126.809 16.1523 127.992 16.375 129.023 16.6094V24.7656C128.414 24.4375 127.617 24.1445 126.633 23.8867C125.648 23.6055 124.594 23.3828 123.469 23.2188C122.367 23.0312 121.254 22.8906 120.129 22.7969C119.004 22.7031 117.984 22.6562 117.07 22.6562L109.547 34.9609L117.07 47.2656C117.984 47.2656 119.004 47.2188 120.129 47.125C121.254 47.0312 122.367 46.9023 123.469 46.7383C124.594 46.5508 125.648 46.3281 126.633 46.0703C127.617 45.7891 128.414 45.4844 129.023 45.1562V53.3125C127.992 53.5469 126.809 53.7695 125.473 53.9805C124.324 54.168 122.93 54.3555 121.289 54.543C119.648 54.7305 117.773 54.8828 115.664 55H112.992L105.188 42.2734L97.4531 55H94.7812C92.6719 54.8828 90.7969 54.7305 89.1562 54.543C87.5156 54.3555 86.1211 54.168 84.9727 53.9805C83.6367 53.7695 82.4531 53.5469 81.4219 53.3125V45.1562C82.0078 45.4844 82.793 45.7891 83.7773 46.0703C84.7617 46.3281 85.8047 46.5508 86.9062 46.7383C88.0312 46.9023 89.1562 47.0312 90.2812 47.125C91.4297 47.2188 92.4609 47.2656 93.375 47.2656L100.828 34.9609L93.375 22.6562C92.4609 22.6562 91.4297 22.7031 90.2812 22.7969C89.1562 22.8906 88.0312 23.0312 86.9062 23.2188C85.8047 23.3828 84.7617 23.6055 83.7773 23.8867C82.793 24.1445 82.0078 24.4375 81.4219 24.7656V16.6094C82.4531 16.375 83.6367 16.1523 84.9727 15.9414C86.1211 15.7539 87.5156 15.5664 89.1562 15.3789C90.7969 15.1914 92.6719 15.0391 94.7812 14.9219H97.4531L105.188 27.7188ZM178.734 40.6562C178.148 40.1406 177.422 39.6367 176.555 39.1445C175.688 38.6523 174.621 38.2188 173.355 37.8438C172.09 37.4453 170.578 37.1289 168.82 36.8945C167.086 36.6367 165.047 36.5078 162.703 36.5078C160.617 36.5078 158.637 36.5547 156.762 36.6484C154.91 36.7188 153.281 36.9531 151.875 37.3516C150.469 37.7266 149.355 38.3359 148.535 39.1797C147.715 40.0234 147.305 41.1953 147.305 42.6953V47.1953C149.367 47.5234 151.641 47.793 154.125 48.0039C156.609 48.2148 159.375 48.3203 162.422 48.3203C164.859 48.3203 167.449 48.2383 170.191 48.0742C172.957 47.8867 175.805 47.5234 178.734 46.9844V40.6562ZM162.914 14.9219C164.086 14.9219 165.504 14.9805 167.168 15.0977C168.832 15.2148 170.566 15.4258 172.371 15.7305C174.176 16.0117 175.957 16.4102 177.715 16.9258C179.496 17.418 181.09 18.0742 182.496 18.8945C183.926 19.6914 185.074 20.6523 185.941 21.7773C186.809 22.9023 187.242 24.2266 187.242 25.75V52.9609C185.273 53.3594 183.047 53.6992 180.562 53.9805C178.43 54.2383 175.887 54.4727 172.934 54.6836C169.98 54.8945 166.688 55 163.055 55C159.445 55 155.602 54.8477 151.523 54.543C147.469 54.2383 143.227 53.7109 138.797 52.9609V40.3047C138.797 38.9453 139.113 37.7617 139.746 36.7539C140.402 35.7227 141.293 34.8438 142.418 34.1172C143.543 33.3906 144.867 32.793 146.391 32.3242C147.914 31.8555 149.555 31.4805 151.312 31.1992C153.07 30.918 154.898 30.7305 156.797 30.6367C158.695 30.5195 160.594 30.4609 162.492 30.4609C165.375 30.4609 167.824 30.6484 169.84 31.0234C171.879 31.375 173.566 31.7617 174.902 32.1836C176.449 32.6992 177.727 33.2734 178.734 33.9062V28.2109C178.734 27.25 178.5 26.4297 178.031 25.75C177.562 25.0469 176.93 24.4609 176.133 23.9922C175.336 23.5 174.422 23.1133 173.391 22.832C172.359 22.5273 171.281 22.293 170.156 22.1289C169.031 21.9648 167.883 21.8594 166.711 21.8125C165.562 21.7656 164.484 21.7422 163.477 21.7422C162.422 21.7422 161.297 21.7773 160.102 21.8477C158.906 21.8945 157.711 22 156.516 22.1641C155.344 22.3281 154.207 22.5625 153.105 22.8672C152.027 23.1484 151.066 23.5352 150.223 24.0273C149.379 24.5195 148.699 25.1172 148.184 25.8203C147.691 26.5 147.445 27.3203 147.445 28.2812L138.727 26.0312C138.727 24.4609 139.113 23.1016 139.887 21.9531C140.66 20.7812 141.68 19.7852 142.945 18.9648C144.234 18.1445 145.711 17.4766 147.375 16.9609C149.039 16.4219 150.762 16.0117 152.543 15.7305C154.348 15.4258 156.141 15.2148 157.922 15.0977C159.703 14.9805 161.367 14.9219 162.914 14.9219Z"/><path fill="#000" d="M40.8867 1.87891L40.8225 2.87684L40.8229 2.87687L40.8867 1.87891ZM53.5781 3.39062H54.5781V2.54571L53.7451 2.40466L53.5781 3.39062ZM53.5781 12.3203L53.3034 13.2818L54.5781 13.646V12.3203H53.5781ZM47.6016 10.9492L47.4186 11.9324L47.4297 11.9343L47.6016 10.9492ZM41.5195 10.0703L41.4154 11.0649L41.4166 11.065L41.5195 10.0703ZM29.4609 9.4375L29.4727 8.4375H29.4609V9.4375ZM26.2617 9.50781L26.2821 10.5076L26.2919 10.5074L26.3017 10.507L26.2617 9.50781ZM22.5352 9.64844L22.4826 8.64982L22.4817 8.64987L22.5352 9.64844ZM14.0625 10.4922L13.9211 9.50224L13.0625 9.62489V10.4922H14.0625ZM14.0625 23.2891H13.0625V24.2891H14.0625V23.2891ZM44.7891 23.2891H45.7891V22.2891H44.7891V23.2891ZM44.7891 31.9375V32.9375H45.7891V31.9375H44.7891ZM14.0625 31.9375V30.9375H13.0625V31.9375H14.0625ZM14.0625 55V56H15.0625V55H14.0625ZM5.41406 55H4.41406V56H5.41406V55ZM5.41406 3.39062L5.24539 2.40495L4.41406 2.54721V3.39062H5.41406ZM18.0352 1.87891L17.9717 0.880922L17.9713 0.880945L18.0352 1.87891ZM29.4609 2.49219C33.0467 2.49219 36.8337 2.62026 40.8225 2.87684L40.9509 0.880969C36.9241 0.621932 33.094 0.492188 29.4609 0.492188V2.49219ZM40.8229 2.87687C44.816 3.13224 49.0119 3.63174 53.4112 4.37659L53.7451 2.40466C49.285 1.64951 45.0199 1.1412 40.9505 0.880945L40.8229 2.87687ZM52.5781 3.39062V12.3203H54.5781V3.39062H52.5781ZM53.8528 11.3588C51.8503 10.7866 49.8237 10.3217 47.7734 9.96409L47.4297 11.9343C49.4106 12.2799 51.3685 12.729 53.3034 13.2818L53.8528 11.3588ZM47.7845 9.96609C45.7423 9.58616 43.6883 9.28933 41.6224 9.07562L41.4166 11.065C43.4289 11.2732 45.4295 11.5623 47.4187 11.9323L47.7845 9.96609ZM41.6236 9.07574C39.5889 8.86281 37.5541 8.70901 35.5191 8.61436L35.4262 10.6122C37.4225 10.7051 39.4189 10.8559 41.4154 11.0649L41.6236 9.07574ZM35.5191 8.61436C33.4921 8.52008 31.4766 8.46114 29.4727 8.43757L29.4492 10.4374C31.4296 10.4607 33.422 10.519 35.4262 10.6122L35.5191 8.61436ZM29.4609 8.4375C28.4842 8.4375 27.4042 8.46131 26.2218 8.50861L26.3017 10.507C27.463 10.4606 28.5158 10.4375 29.4609 10.4375V8.4375ZM26.2413 8.50802C25.0806 8.53171 23.8276 8.57903 22.4826 8.64982L22.5877 10.6471C23.9146 10.5772 25.146 10.5308 26.2821 10.5076L26.2413 8.50802ZM22.4817 8.64987C21.1531 8.72104 19.7671 8.8277 18.324 8.96965L18.5198 10.96C19.936 10.8207 21.2923 10.7165 22.5887 10.647L22.4817 8.64987ZM18.324 8.96965C16.8792 9.11176 15.4116 9.28931 13.9211 9.50224L14.2039 11.4821C15.6666 11.2732 17.1052 11.0992 18.5198 10.96L18.324 8.96965ZM13.0625 10.4922V23.2891H15.0625V10.4922H13.0625ZM14.0625 24.2891H44.7891V22.2891H14.0625V24.2891ZM43.7891 23.2891V31.9375H45.7891V23.2891H43.7891ZM44.7891 30.9375H14.0625V32.9375H44.7891V30.9375ZM13.0625 31.9375V55H15.0625V31.9375H13.0625ZM14.0625 54H5.41406V56H14.0625V54ZM6.41406 55V3.39062H4.41406V55H6.41406ZM5.58273 4.3763C9.93425 3.63165 14.1062 3.13222 18.099 2.87687L17.9713 0.880945C13.9016 1.14122 9.6595 1.6496 5.24539 2.40495L5.58273 4.3763ZM18.0986 2.87689C22.135 2.62024 25.9223 2.49219 29.4609 2.49219V0.492188C25.8746 0.492188 22.0446 0.621948 17.9717 0.880922L18.0986 2.87689ZM70.4531 55V56H71.4531V55H70.4531ZM61.5234 55H60.5234V56H61.5234V55ZM61.5234 14.9219V13.9219H60.5234V14.9219H61.5234ZM70.4531 14.9219H71.4531V13.9219H70.4531V14.9219ZM70.1367 1.87891L69.6341 2.74341L69.6417 2.74783L69.6494 2.7521L70.1367 1.87891ZM61.9805 8.76953L61.5416 9.66814L61.5497 9.67201L61.9805 8.76953ZM61.9805 1.87891L62.4678 2.75213L62.4745 2.74836L61.9805 1.87891ZM70.4531 54H61.5234V56H70.4531V54ZM62.5234 55V14.9219H60.5234V55H62.5234ZM61.5234 15.9219H70.4531V13.9219H61.5234V15.9219ZM69.4531 14.9219V55H71.4531V14.9219H69.4531ZM66.0234 2C67.6613 2 68.8358 2.27927 69.6341 2.74341L70.6393 1.0144C69.422 0.306672 67.8544 0 66.0234 0V2ZM69.6494 2.7521C70.3121 3.12201 70.6484 3.67226 70.6484 4.58594H72.6484C72.6484 3.01524 71.977 1.76081 70.6241 1.00571L69.6494 2.7521ZM70.6484 4.58594V6.34375H72.6484V4.58594H70.6484ZM70.6484 6.34375C70.6484 6.75352 70.5582 7.04619 70.4218 7.26505C70.2855 7.48373 70.0635 7.69241 69.6979 7.87096L70.5756 9.6681C71.2177 9.35447 71.7516 8.91275 72.1192 8.32284C72.4867 7.73311 72.6484 7.05898 72.6484 6.34375H70.6484ZM69.6979 7.87096C68.8811 8.26985 67.6808 8.50781 66.0234 8.50781V10.5078C67.8348 10.5078 69.3767 10.2536 70.5756 9.6681L69.6979 7.87096ZM66.0234 8.50781C64.4456 8.50781 63.2609 8.27259 62.4112 7.86705L61.5497 9.67201C62.7625 10.2508 64.2731 10.5078 66.0234 10.5078V8.50781ZM62.4193 7.87096C62.0537 7.69241 61.8316 7.48373 61.6954 7.26505C61.559 7.04619 61.4688 6.75352 61.4688 6.34375H59.4688C59.4688 7.05898 59.6305 7.73311 59.998 8.32284C60.3656 8.91275 60.8994 9.35447 61.5416 9.6681L62.4193 7.87096ZM61.4688 6.34375V4.58594H59.4688V6.34375H61.4688ZM61.4688 4.58594C61.4688 3.67226 61.8051 3.12201 62.4678 2.7521L61.4931 1.00571C60.1402 1.76081 59.4688 3.01524 59.4688 4.58594H61.4688ZM62.4745 2.74836C63.3065 2.27562 64.4664 2 66.0234 2V0C64.2524 0 62.7169 0.310317 61.4865 1.00945L62.4745 2.74836ZM105.188 27.7188L104.332 28.236L105.184 29.6456L106.041 28.2394L105.188 27.7188ZM112.992 14.9219V13.9219H112.431L112.138 14.4012L112.992 14.9219ZM115.664 14.9219L115.72 13.9234L115.692 13.9219H115.664V14.9219ZM125.473 15.9414L125.312 16.9284L125.317 16.9292L125.473 15.9414ZM129.023 16.6094H130.023V15.8111L129.245 15.6342L129.023 16.6094ZM129.023 24.7656L128.549 25.6461L130.023 26.4398V24.7656H129.023ZM126.633 23.8867L126.358 24.8482L126.369 24.8513L126.379 24.8541L126.633 23.8867ZM123.469 23.2188L123.301 24.2046L123.313 24.2066L123.324 24.2083L123.469 23.2188ZM117.07 22.6562V21.6562H116.51L116.217 22.1346L117.07 22.6562ZM109.547 34.9609L108.694 34.4393L108.375 34.9609L108.694 35.4826L109.547 34.9609ZM117.07 47.2656L116.217 47.7873L116.51 48.2656H117.07V47.2656ZM123.469 46.7383L123.616 47.7274L123.625 47.7261L123.633 47.7247L123.469 46.7383ZM126.633 46.0703L126.886 47.0377L126.897 47.0349L126.908 47.0318L126.633 46.0703ZM129.023 45.1562H130.023V43.482L128.549 44.2758L129.023 45.1562ZM129.023 53.3125L129.245 54.2876L130.023 54.1107V53.3125H129.023ZM125.473 53.9805L125.317 52.9927L125.312 52.9935L125.473 53.9805ZM115.664 55V56H115.692L115.72 55.9985L115.664 55ZM112.992 55L112.14 55.5228L112.432 56H112.992V55ZM105.188 42.2734L106.04 41.7507L105.184 40.3543L104.333 41.7541L105.188 42.2734ZM97.4531 55V56H98.0156L98.3077 55.5193L97.4531 55ZM94.7812 55L94.7258 55.9985L94.7535 56H94.7812V55ZM84.9727 53.9805L85.1338 52.9935L85.1286 52.9927L84.9727 53.9805ZM81.4219 53.3125H80.4219V54.1107L81.2003 54.2876L81.4219 53.3125ZM81.4219 45.1562L81.9105 44.2837L80.4219 43.4501V45.1562H81.4219ZM83.7773 46.0703L83.5026 47.0318L83.5133 47.0349L83.524 47.0377L83.7773 46.0703ZM86.9062 46.7383L86.7385 47.7241L86.7502 47.7261L86.7619 47.7278L86.9062 46.7383ZM90.2812 47.125L90.1982 48.1215L90.1999 48.1217L90.2812 47.125ZM93.375 47.2656V48.2656H93.9384L94.2303 47.7837L93.375 47.2656ZM100.828 34.9609L101.683 35.479L101.997 34.9609L101.683 34.4429L100.828 34.9609ZM93.375 22.6562L94.2303 22.1382L93.9384 21.6562H93.375V22.6562ZM90.2812 22.7969L90.1999 21.8002L90.1982 21.8003L90.2812 22.7969ZM86.9062 23.2188L87.0536 24.2078L87.0621 24.2066L87.0706 24.2051L86.9062 23.2188ZM83.7773 23.8867L84.0307 24.8541L84.0414 24.8513L84.0521 24.8482L83.7773 23.8867ZM81.4219 24.7656H80.4219V26.4717L81.9105 25.6381L81.4219 24.7656ZM81.4219 16.6094L81.2003 15.6342L80.4219 15.8111V16.6094H81.4219ZM84.9727 15.9414L85.1286 16.9292L85.1338 16.9283L84.9727 15.9414ZM94.7812 14.9219V13.9219H94.7535L94.7258 13.9234L94.7812 14.9219ZM97.4531 14.9219L98.309 14.4046L98.0172 13.9219H97.4531V14.9219ZM106.041 28.2394L113.846 15.4426L112.138 14.4012L104.334 27.1981L106.041 28.2394ZM112.992 15.9219H115.664V13.9219H112.992V15.9219ZM115.609 15.9203C117.704 16.0367 119.559 16.1877 121.176 16.3724L121.403 14.3854C119.738 14.1952 117.843 14.0414 115.72 13.9234L115.609 15.9203ZM121.176 16.3724C122.806 16.5588 124.184 16.7442 125.312 16.9283L125.634 14.9545C124.465 14.7636 123.053 14.574 121.403 14.3854L121.176 16.3724ZM125.317 16.9292C126.636 17.1375 127.797 17.3562 128.802 17.5845L129.245 15.6342C128.187 15.3938 126.981 15.1672 125.629 14.9536L125.317 16.9292ZM128.023 16.6094V24.7656H130.023V16.6094H128.023ZM129.498 23.8852C128.794 23.5063 127.915 23.1888 126.886 22.9193L126.379 24.8541C127.319 25.1003 128.034 25.3687 128.549 25.6461L129.498 23.8852ZM126.908 22.9252C125.876 22.6305 124.777 22.399 123.613 22.2292L123.324 24.2083C124.41 24.3666 125.421 24.5805 126.358 24.8482L126.908 22.9252ZM123.637 22.2329C122.507 22.0406 121.365 21.8964 120.212 21.8003L120.046 23.7934C121.143 23.8848 122.228 24.0219 123.301 24.2046L123.637 22.2329ZM120.212 21.8003C119.065 21.7048 118.018 21.6562 117.07 21.6562V23.6562C117.951 23.6562 118.942 23.7015 120.046 23.7934L120.212 21.8003ZM116.217 22.1346L108.694 34.4393L110.4 35.4826L117.923 23.1779L116.217 22.1346ZM108.694 35.4826L116.217 47.7873L117.923 46.744L110.4 34.4393L108.694 35.4826ZM117.07 48.2656C118.018 48.2656 119.065 48.2171 120.212 48.1215L120.046 46.1285C118.942 46.2204 117.951 46.2656 117.07 46.2656V48.2656ZM120.212 48.1215C121.358 48.026 122.493 47.8947 123.616 47.7274L123.321 45.7492C122.242 45.91 121.15 46.0365 120.046 46.1285L120.212 48.1215ZM123.633 47.7247C124.785 47.5328 125.869 47.304 126.886 47.0377L126.379 45.1029C125.428 45.3522 124.403 45.5688 123.304 45.7519L123.633 47.7247ZM126.908 47.0318C127.932 46.7393 128.802 46.411 129.498 46.0367L128.549 44.2758C128.026 44.5578 127.303 44.8389 126.358 45.1088L126.908 47.0318ZM128.023 45.1562V53.3125H130.023V45.1562H128.023ZM128.802 52.3374C127.797 52.5657 126.636 52.7843 125.317 52.9927L125.629 54.9682C126.981 54.7547 128.187 54.5281 129.245 54.2876L128.802 52.3374ZM125.312 52.9935C124.184 53.1776 122.806 53.3631 121.176 53.5494L121.403 55.5365C123.053 55.3479 124.465 55.1583 125.634 54.9674L125.312 52.9935ZM121.176 53.5494C119.559 53.7342 117.704 53.8851 115.609 54.0015L115.72 55.9985C117.843 55.8805 119.738 55.7267 121.403 55.5365L121.176 53.5494ZM115.664 54H112.992V56H115.664V54ZM113.845 54.4772L106.04 41.7507L104.335 42.7962L112.14 55.5228L113.845 54.4772ZM104.333 41.7541L96.5986 54.4807L98.3077 55.5193L106.042 42.7928L104.333 41.7541ZM97.4531 54H94.7812V56H97.4531V54ZM94.8367 54.0015C92.7417 53.8851 90.8867 53.7342 89.2698 53.5494L89.0427 55.5365C90.7071 55.7267 92.6021 55.8805 94.7258 55.9985L94.8367 54.0015ZM89.2698 53.5494C87.6391 53.3631 86.2614 53.1776 85.1338 52.9935L84.8115 54.9674C85.9808 55.1583 87.3922 55.3479 89.0427 55.5365L89.2698 53.5494ZM85.1286 52.9927C83.809 52.7843 82.648 52.5657 81.6435 52.3374L81.2003 54.2876C82.2582 54.5281 83.4645 54.7547 84.8167 54.9682L85.1286 52.9927ZM82.4219 53.3125V45.1562H80.4219V53.3125H82.4219ZM80.9333 46.0288C81.6122 46.409 82.4783 46.7392 83.5026 47.0318L84.0521 45.1088C83.1077 44.839 82.4034 44.5598 81.9105 44.2837L80.9333 46.0288ZM83.524 47.0377C84.5392 47.3036 85.6109 47.5322 86.7385 47.7241L87.074 45.7525C85.9985 45.5694 84.9843 45.3527 84.0307 45.1029L83.524 47.0377ZM86.7619 47.7278C87.9071 47.8948 89.0526 48.0261 90.1982 48.1215L90.3643 46.1285C89.2599 46.0364 88.1554 45.9099 87.0506 45.7487L86.7619 47.7278ZM90.1999 48.1217C91.3688 48.2171 92.4279 48.2656 93.375 48.2656V46.2656C92.494 46.2656 91.4906 46.2204 90.3626 46.1283L90.1999 48.1217ZM94.2303 47.7837L101.683 35.479L99.9728 34.4429L92.5197 46.7475L94.2303 47.7837ZM101.683 34.4429L94.2303 22.1382L92.5197 23.1743L99.9728 35.479L101.683 34.4429ZM93.375 21.6562C92.4279 21.6562 91.3688 21.7048 90.1999 21.8002L90.3626 23.7936C91.4906 23.7015 92.494 23.6562 93.375 23.6562V21.6562ZM90.1982 21.8003C89.0457 21.8964 87.8935 22.0404 86.7419 22.2324L87.0706 24.2051C88.169 24.0221 89.2668 23.8849 90.3643 23.7934L90.1982 21.8003ZM86.7589 22.2297C85.6181 22.3996 84.5323 22.631 83.5026 22.9252L84.0521 24.8482C84.9912 24.5799 85.9913 24.366 87.0536 24.2078L86.7589 22.2297ZM83.524 22.9193C82.495 23.1888 81.6208 23.5081 80.9333 23.8931L81.9105 25.6381C82.3948 25.3669 83.0909 25.1002 84.0307 24.8541L83.524 22.9193ZM82.4219 24.7656V16.6094H80.4219V24.7656H82.4219ZM81.6435 17.5845C82.648 17.3562 83.809 17.1375 85.1286 16.9292L84.8167 14.9536C83.4645 15.1672 82.2582 15.3938 81.2003 15.6342L81.6435 17.5845ZM85.1338 16.9283C86.2614 16.7442 87.6391 16.5588 89.2698 16.3724L89.0427 14.3854C87.3922 14.574 85.9808 14.7636 84.8115 14.9545L85.1338 16.9283ZM89.2698 16.3724C90.8867 16.1877 92.7417 16.0367 94.8367 15.9203L94.7258 13.9234C92.6021 14.0414 90.7071 14.1952 89.0427 14.3854L89.2698 16.3724ZM94.7812 15.9219H97.4531V13.9219H94.7812V15.9219ZM96.5973 15.4391L104.332 28.236L106.043 27.2015L98.309 14.4046L96.5973 15.4391ZM178.734 40.6562H179.734V40.2042L179.395 39.9055L178.734 40.6562ZM173.355 37.8438L173.055 38.7976L173.063 38.8001L173.071 38.8025L173.355 37.8438ZM168.82 36.8945L168.673 37.8837L168.681 37.8848L168.688 37.8858L168.82 36.8945ZM156.762 36.6484L156.8 37.6478L156.812 37.6472L156.762 36.6484ZM151.875 37.3516L152.133 38.3178L152.14 38.3158L152.148 38.3137L151.875 37.3516ZM147.305 47.1953H146.305V48.0488L147.148 48.1829L147.305 47.1953ZM170.191 48.0742L170.251 49.0725L170.259 49.0719L170.191 48.0742ZM178.734 46.9844L178.915 47.9679L179.734 47.8172V46.9844H178.734ZM172.371 15.7305L172.205 16.7166L172.217 16.7185L172.371 15.7305ZM177.715 16.9258L177.433 17.8854L177.441 17.8876L177.449 17.8897L177.715 16.9258ZM182.496 18.8945L181.992 19.7583L182.001 19.7632L182.009 19.768L182.496 18.8945ZM187.242 52.9609L187.441 53.9411L188.242 53.7788V52.9609H187.242ZM180.562 53.9805L180.45 52.9868L180.442 52.9877L180.562 53.9805ZM151.523 54.543L151.449 55.5402L151.449 55.5402L151.523 54.543ZM138.797 52.9609H137.797V53.8059L138.63 53.9469L138.797 52.9609ZM139.746 36.7539L138.902 36.217L138.899 36.2221L139.746 36.7539ZM156.797 30.6367L156.846 31.6356L156.858 31.6348L156.797 30.6367ZM169.84 31.0234L169.657 32.0067L169.67 32.0089L169.84 31.0234ZM174.902 32.1836L175.219 31.2349L175.211 31.2324L175.203 31.23L174.902 32.1836ZM178.734 33.9062L178.203 34.7531L179.734 35.7149V33.9062H178.734ZM178.031 25.75L177.199 26.3047L177.204 26.3113L177.208 26.3177L178.031 25.75ZM176.133 23.9922L175.607 24.843L175.616 24.8487L175.626 24.8541L176.133 23.9922ZM173.391 22.832L173.107 23.791L173.117 23.794L173.128 23.7968L173.391 22.832ZM166.711 21.8125L166.67 22.8117L166.671 22.8117L166.711 21.8125ZM160.102 21.8477L160.141 22.8469L160.151 22.8465L160.16 22.8459L160.102 21.8477ZM156.516 22.1641L156.38 21.1733L156.377 21.1737L156.516 22.1641ZM153.105 22.8672L153.358 23.8348L153.365 23.833L153.372 23.831L153.105 22.8672ZM148.184 25.8203L147.377 25.2289L147.374 25.2338L148.184 25.8203ZM147.445 28.2812L147.195 29.2495L148.445 29.5721V28.2812H147.445ZM138.727 26.0312H137.727V26.8059L138.477 26.9995L138.727 26.0312ZM139.887 21.9531L140.716 22.5117L140.721 22.504L139.887 21.9531ZM142.945 18.9648L142.408 18.1212L142.401 18.1257L142.945 18.9648ZM147.375 16.9609L147.671 17.9162L147.683 17.9123L147.375 16.9609ZM152.543 15.7305L152.699 16.7183L152.709 16.7165L152.543 15.7305ZM179.395 39.9055C178.746 39.3342 177.96 38.792 177.048 38.2748L176.061 40.0142C176.884 40.4814 177.551 40.9471 178.074 41.407L179.395 39.9055ZM177.048 38.2748C176.098 37.7352 174.956 37.2751 173.64 36.885L173.071 38.8025C174.286 39.1624 175.277 39.5695 176.061 40.0142L177.048 38.2748ZM173.656 36.8899C172.321 36.4695 170.75 36.1429 168.952 35.9033L168.688 37.8858C170.407 38.1149 171.859 38.4211 173.055 38.7976L173.656 36.8899ZM168.967 35.9054C167.171 35.6384 165.081 35.5078 162.703 35.5078V37.5078C165.013 37.5078 167.001 37.635 168.673 37.8837L168.967 35.9054ZM162.703 35.5078C160.602 35.5078 158.605 35.555 156.712 35.6497L156.812 37.6472C158.668 37.5544 160.632 37.5078 162.703 37.5078V35.5078ZM156.724 35.6492C154.813 35.7217 153.102 35.9645 151.602 36.3894L152.148 38.3137C153.46 37.9418 155.007 37.7158 156.8 37.6477L156.724 35.6492ZM151.617 36.3853C150.078 36.7959 148.791 37.4818 147.818 38.4826L149.252 39.8768C149.92 39.19 150.86 38.6572 152.133 38.3178L151.617 36.3853ZM147.818 38.4826C146.77 39.5605 146.305 41.0097 146.305 42.6953H148.305C148.305 41.3809 148.659 40.4864 149.252 39.8768L147.818 38.4826ZM146.305 42.6953V47.1953H148.305V42.6953H146.305ZM147.148 48.1829C149.238 48.5155 151.536 48.7877 154.04 49.0003L154.21 47.0075C151.745 46.7982 149.496 46.5314 147.462 46.2077L147.148 48.1829ZM154.04 49.0003C156.558 49.2141 159.353 49.3203 162.422 49.3203V47.3203C159.397 47.3203 156.66 47.2156 154.21 47.0075L154.04 49.0003ZM162.422 49.3203C164.882 49.3203 167.492 49.2375 170.251 49.0724L170.132 47.076C167.407 47.239 164.837 47.3203 162.422 47.3203V49.3203ZM170.259 49.0719C173.065 48.8817 175.951 48.5133 178.915 47.9679L178.553 46.0009C175.658 46.5336 172.849 46.8918 170.124 47.0765L170.259 49.0719ZM179.734 46.9844V40.6562H177.734V46.9844H179.734ZM162.914 15.9219C164.055 15.9219 165.448 15.979 167.098 16.0952L167.238 14.1001C165.56 13.9819 164.117 13.9219 162.914 13.9219V15.9219ZM167.098 16.0952C168.727 16.2099 170.429 16.4167 172.205 16.7165L172.538 14.7444C170.704 14.4349 168.937 14.2198 167.238 14.1001L167.098 16.0952ZM172.217 16.7185C173.979 16.9931 175.717 17.382 177.433 17.8854L177.996 15.9662C176.197 15.4384 174.373 15.0304 172.525 14.7424L172.217 16.7185ZM177.449 17.8897C179.158 18.3619 180.67 18.9869 181.992 19.7583L183 18.0308C181.51 17.1616 179.835 16.474 177.981 15.9619L177.449 17.8897ZM182.009 19.768C183.338 20.5088 184.377 21.3854 185.149 22.3879L186.733 21.1668C185.772 19.9193 184.513 18.874 182.983 18.0211L182.009 19.768ZM185.149 22.3879C185.872 23.3248 186.242 24.4304 186.242 25.75H188.242C188.242 24.0228 187.746 22.4798 186.733 21.1668L185.149 22.3879ZM186.242 25.75V52.9609H188.242V25.75H186.242ZM187.044 51.9808C185.109 52.3723 182.912 52.7081 180.45 52.9868L180.675 54.9741C183.182 54.6904 185.438 54.3464 187.441 53.9411L187.044 51.9808ZM180.442 52.9877C178.331 53.243 175.805 53.476 172.862 53.6861L173.005 55.6811C175.969 55.4694 178.529 55.2336 180.683 54.9732L180.442 52.9877ZM172.862 53.6861C169.938 53.8951 166.669 54 163.055 54V56C166.706 56 170.023 55.894 173.005 55.6811L172.862 53.6861ZM163.055 54C159.473 54 155.654 53.8488 151.598 53.5457L151.449 55.5402C155.549 55.8465 159.417 56 163.055 56V54ZM151.598 53.5458C147.578 53.2436 143.366 52.7203 138.964 51.975L138.63 53.9469C143.087 54.7015 147.36 55.2329 151.449 55.5402L151.598 53.5458ZM139.797 52.9609V40.3047H137.797V52.9609H139.797ZM139.797 40.3047C139.797 39.106 140.074 38.1124 140.593 37.2857L138.899 36.2221C138.153 37.411 137.797 38.7846 137.797 40.3047H139.797ZM140.59 37.2908C141.161 36.3923 141.945 35.6132 142.96 34.9572L141.875 33.2771C140.641 34.0743 139.643 35.053 138.902 36.217L140.59 37.2908ZM142.96 34.9572C143.995 34.2889 145.233 33.7267 146.685 33.28L146.097 31.3684C144.501 31.8592 143.091 32.4924 141.875 33.2771L142.96 34.9572ZM146.685 33.28C148.159 32.8264 149.753 32.4614 151.47 32.1867L151.155 30.2118C149.356 30.4996 147.669 30.8845 146.097 31.3684L146.685 33.28ZM151.47 32.1867C153.19 31.9115 154.982 31.7276 156.846 31.6355L156.748 29.6379C154.815 29.7334 152.951 29.9244 151.155 30.2118L151.47 32.1867ZM156.858 31.6348C158.736 31.5189 160.614 31.4609 162.492 31.4609V29.4609C160.573 29.4609 158.654 29.5202 156.735 29.6386L156.858 31.6348ZM162.492 31.4609C165.336 31.4609 167.72 31.6463 169.657 32.0066L170.023 30.0403C167.928 29.6506 165.414 29.4609 162.492 29.4609V31.4609ZM169.67 32.0089C171.683 32.356 173.323 32.7336 174.601 33.1372L175.203 31.23C173.81 30.7898 172.074 30.394 170.01 30.038L169.67 32.0089ZM174.586 33.1323C176.083 33.6313 177.282 34.1751 178.203 34.7531L179.266 33.0594C178.171 32.3718 176.815 31.7672 175.219 31.2349L174.586 33.1323ZM179.734 33.9062V28.2109H177.734V33.9062H179.734ZM179.734 28.2109C179.734 27.0814 179.456 26.055 178.854 25.1823L177.208 26.3177C177.544 26.8044 177.734 27.4186 177.734 28.2109H179.734ZM178.863 25.1953C178.303 24.3551 177.554 23.6683 176.64 23.1303L175.626 24.8541C176.305 25.2536 176.822 25.7387 177.199 26.3047L178.863 25.1953ZM176.658 23.1414C175.769 22.5923 174.765 22.1702 173.654 21.8673L173.128 23.7968C174.079 24.0563 174.903 24.4077 175.607 24.843L176.658 23.1414ZM173.674 21.873C172.595 21.5541 171.47 21.3099 170.301 21.1394L170.012 23.1184C171.093 23.276 172.124 23.5006 173.107 23.791L173.674 21.873ZM170.301 21.1394C169.14 20.9701 167.957 20.8615 166.751 20.8133L166.671 22.8117C167.809 22.8572 168.923 22.9596 170.012 23.1184L170.301 21.1394ZM166.752 20.8133C165.592 20.766 164.5 20.7422 163.477 20.7422V22.7422C164.469 22.7422 165.533 22.7653 166.67 22.8117L166.752 20.8133ZM163.477 20.7422C162.4 20.7422 161.255 20.7781 160.043 20.8494L160.16 22.8459C161.339 22.7766 162.444 22.7422 163.477 22.7422V20.7422ZM160.062 20.8484C158.834 20.8966 157.607 21.0049 156.38 21.1734L156.652 23.1548C157.815 22.9951 158.978 22.8925 160.141 22.8469L160.062 20.8484ZM156.377 21.1737C155.163 21.3436 153.984 21.5867 152.839 21.9034L153.372 23.831C154.43 23.5383 155.524 23.3126 156.654 23.1544L156.377 21.1737ZM152.853 21.8996C151.699 22.2007 150.651 22.6196 149.719 23.1636L150.727 24.8911C151.481 24.4508 152.356 24.0962 153.358 23.8348L152.853 21.8996ZM149.719 23.1636C148.771 23.7165 147.983 24.4026 147.377 25.2289L148.99 26.4117C149.415 25.8317 149.987 25.3225 150.727 24.8911L149.719 23.1636ZM147.374 25.2338C146.741 26.1081 146.445 27.1414 146.445 28.2812H148.445C148.445 27.4992 148.642 26.8919 148.994 26.4068L147.374 25.2338ZM147.695 27.313L138.976 25.063L138.477 26.9995L147.195 29.2495L147.695 27.313ZM139.727 26.0312C139.727 24.6324 140.068 23.4736 140.716 22.5117L139.057 21.3945C138.158 22.7295 137.727 24.2895 137.727 26.0312H139.727ZM140.721 22.504C141.413 21.4556 142.331 20.5549 143.489 19.804L142.401 18.1257C141.029 19.0154 139.907 20.1069 139.052 21.4023L140.721 22.504ZM143.482 19.8085C144.687 19.042 146.08 18.4091 147.671 17.9161L147.079 16.0057C145.342 16.5441 143.782 17.247 142.408 18.1212L143.482 19.8085ZM147.683 17.9123C149.296 17.3898 150.968 16.9916 152.699 16.7182L152.387 14.7427C150.556 15.0319 148.782 15.454 147.067 16.0096L147.683 17.9123ZM152.709 16.7165C154.482 16.4173 156.241 16.2104 157.988 16.0955L157.856 14.0998C156.04 14.2193 154.214 14.4342 152.376 14.7444L152.709 16.7165ZM157.988 16.0955C159.75 15.9795 161.392 15.9219 162.914 15.9219V13.9219C161.342 13.9219 159.656 13.9814 157.856 14.0998L157.988 16.0955Z"/></g><defs><filter id="filter0_d" width="191.828" height="64" x=".414" y="0" color-interpolation-filters="sRGB" filterUnits="userSpaceOnUse"><feFlood flood-opacity="0" result="BackgroundImageFix"/><feColorMatrix in="SourceAlpha" type="matrix" values="0 0 0 0 0 0 0 0 0 0 0 0 0 0 0 0 0 0 127 0"/><feOffset dy="4"/><feGaussianBlur stdDeviation="2"/><feColorMatrix type="matrix" values="0 0 0 0 0 0 0 0 0 0 0 0 0 0 0 0 0 0 0.25 0"/><feBlend in2="BackgroundImageFix" mode="normal" result="effect1_dropShadow"/><feBlend in="SourceGraphic" in2="effect1_dropShadow" mode="normal" result="shape"/></filter></defs></svg>